<mxfile host="app.diagrams.net" modified="2020-07-30T09:25:38.530Z" agent="5.0 (Macintosh; Intel Mac OS X 10_15_4) AppleWebKit/537.36 (KHTML, like Gecko) Chrome/84.0.4147.89 Safari/537.36" etag="A-cScQ1rhwAmCUkyk4NQ" version="13.5.5" type="github">
  <diagram id="C5RBs43oDa-KdzZeNtuy" name="Page-1">
    <mxGraphModel dx="742" dy="1586" grid="1" gridSize="10" guides="1" tooltips="1" connect="1" arrows="1" fold="1" page="1" pageScale="1" pageWidth="827" pageHeight="1169" math="0" shadow="0">
      <root>
        <mxCell id="WIyWlLk6GJQsqaUBKTNV-0" />
        <mxCell id="WIyWlLk6GJQsqaUBKTNV-1" parent="WIyWlLk6GJQsqaUBKTNV-0" />
        <mxCell id="TqVi8izwRz0PIjWKsdhe-3" style="edgeStyle=orthogonalEdgeStyle;rounded=0;orthogonalLoop=1;jettySize=auto;html=1;exitX=0.5;exitY=1;exitDx=0;exitDy=0;entryX=0.5;entryY=0;entryDx=0;entryDy=0;" edge="1" parent="WIyWlLk6GJQsqaUBKTNV-1" source="TqVi8izwRz0PIjWKsdhe-0" target="TqVi8izwRz0PIjWKsdhe-2">
          <mxGeometry relative="1" as="geometry">
            <mxPoint x="330.1111111111111" y="220" as="targetPoint" />
            <Array as="points" />
          </mxGeometry>
        </mxCell>
        <mxCell id="TqVi8izwRz0PIjWKsdhe-0" value="MysqlReportRoutine" style="rounded=0;whiteSpace=wrap;html=1;" vertex="1" parent="WIyWlLk6GJQsqaUBKTNV-1">
          <mxGeometry x="350" y="150" width="120" height="30" as="geometry" />
        </mxCell>
        <mxCell id="TqVi8izwRz0PIjWKsdhe-18" style="edgeStyle=orthogonalEdgeStyle;rounded=0;orthogonalLoop=1;jettySize=auto;html=1;exitX=0.5;exitY=1;exitDx=0;exitDy=0;entryX=0.5;entryY=0;entryDx=0;entryDy=0;" edge="1" parent="WIyWlLk6GJQsqaUBKTNV-1" source="TqVi8izwRz0PIjWKsdhe-2" target="TqVi8izwRz0PIjWKsdhe-17">
          <mxGeometry relative="1" as="geometry" />
        </mxCell>
        <mxCell id="TqVi8izwRz0PIjWKsdhe-2" value="task queue" style="rounded=0;whiteSpace=wrap;html=1;" vertex="1" parent="WIyWlLk6GJQsqaUBKTNV-1">
          <mxGeometry x="240" y="230" width="340" height="30" as="geometry" />
        </mxCell>
        <mxCell id="TqVi8izwRz0PIjWKsdhe-12" style="edgeStyle=orthogonalEdgeStyle;rounded=0;orthogonalLoop=1;jettySize=auto;html=1;exitX=0.5;exitY=1;exitDx=0;exitDy=0;entryX=0.5;entryY=0;entryDx=0;entryDy=0;" edge="1" parent="WIyWlLk6GJQsqaUBKTNV-1" source="TqVi8izwRz0PIjWKsdhe-4" target="TqVi8izwRz0PIjWKsdhe-0">
          <mxGeometry relative="1" as="geometry" />
        </mxCell>
        <mxCell id="TqVi8izwRz0PIjWKsdhe-4" value="&lt;font color=&quot;#660e7a&quot;&gt;&lt;b&gt;&lt;i&gt;DAILY_REPORT&lt;/i&gt;&lt;/b&gt;&lt;/font&gt;" style="rounded=0;whiteSpace=wrap;html=1;" vertex="1" parent="WIyWlLk6GJQsqaUBKTNV-1">
          <mxGeometry x="170" y="80" width="110" height="20" as="geometry" />
        </mxCell>
        <mxCell id="TqVi8izwRz0PIjWKsdhe-15" style="edgeStyle=orthogonalEdgeStyle;rounded=0;orthogonalLoop=1;jettySize=auto;html=1;exitX=0.5;exitY=1;exitDx=0;exitDy=0;" edge="1" parent="WIyWlLk6GJQsqaUBKTNV-1" source="TqVi8izwRz0PIjWKsdhe-5" target="TqVi8izwRz0PIjWKsdhe-0">
          <mxGeometry relative="1" as="geometry" />
        </mxCell>
        <mxCell id="TqVi8izwRz0PIjWKsdhe-5" value="&lt;font color=&quot;#660e7a&quot;&gt;&lt;b&gt;&lt;i&gt;DailyInspection&lt;/i&gt;&lt;/b&gt;&lt;/font&gt;" style="rounded=0;whiteSpace=wrap;html=1;" vertex="1" parent="WIyWlLk6GJQsqaUBKTNV-1">
          <mxGeometry x="550" y="80" width="100" height="20" as="geometry" />
        </mxCell>
        <mxCell id="TqVi8izwRz0PIjWKsdhe-13" style="edgeStyle=orthogonalEdgeStyle;rounded=0;orthogonalLoop=1;jettySize=auto;html=1;exitX=0.5;exitY=1;exitDx=0;exitDy=0;" edge="1" parent="WIyWlLk6GJQsqaUBKTNV-1" source="TqVi8izwRz0PIjWKsdhe-6">
          <mxGeometry relative="1" as="geometry">
            <mxPoint x="410" y="150" as="targetPoint" />
          </mxGeometry>
        </mxCell>
        <mxCell id="TqVi8izwRz0PIjWKsdhe-6" value="&lt;font color=&quot;#660e7a&quot;&gt;&lt;b&gt;&lt;i&gt;HEALTH_REPORT&lt;/i&gt;&lt;/b&gt;&lt;/font&gt;" style="rounded=0;whiteSpace=wrap;html=1;" vertex="1" parent="WIyWlLk6GJQsqaUBKTNV-1">
          <mxGeometry x="290" y="80" width="110" height="20" as="geometry" />
        </mxCell>
        <mxCell id="TqVi8izwRz0PIjWKsdhe-14" style="edgeStyle=orthogonalEdgeStyle;rounded=0;orthogonalLoop=1;jettySize=auto;html=1;exitX=0.5;exitY=1;exitDx=0;exitDy=0;" edge="1" parent="WIyWlLk6GJQsqaUBKTNV-1" source="TqVi8izwRz0PIjWKsdhe-7" target="TqVi8izwRz0PIjWKsdhe-0">
          <mxGeometry relative="1" as="geometry">
            <mxPoint x="410" y="140" as="targetPoint" />
          </mxGeometry>
        </mxCell>
        <mxCell id="TqVi8izwRz0PIjWKsdhe-7" value="&lt;font color=&quot;#660e7a&quot;&gt;&lt;b&gt;&lt;i&gt;SECUTIRY_REPORT&lt;/i&gt;&lt;/b&gt;&lt;/font&gt;" style="rounded=0;whiteSpace=wrap;html=1;" vertex="1" parent="WIyWlLk6GJQsqaUBKTNV-1">
          <mxGeometry x="414" y="80" width="130" height="20" as="geometry" />
        </mxCell>
        <mxCell id="TqVi8izwRz0PIjWKsdhe-10" style="edgeStyle=orthogonalEdgeStyle;rounded=0;orthogonalLoop=1;jettySize=auto;html=1;exitX=0.5;exitY=1;exitDx=0;exitDy=0;entryX=0.5;entryY=0;entryDx=0;entryDy=0;" edge="1" parent="WIyWlLk6GJQsqaUBKTNV-1" source="TqVi8izwRz0PIjWKsdhe-9" target="TqVi8izwRz0PIjWKsdhe-6">
          <mxGeometry relative="1" as="geometry" />
        </mxCell>
        <mxCell id="TqVi8izwRz0PIjWKsdhe-9" value="&lt;pre style=&quot;background-color: rgb(199 , 237 , 204)&quot;&gt;&lt;font face=&quot;Helvetica&quot; style=&quot;font-size: 12px&quot;&gt;&lt;span style=&quot;color: rgb(102 , 14 , 122) ; font-weight: bold&quot;&gt;subscribeService&lt;/span&gt;.describeSubscribesOpen&lt;/font&gt;&lt;/pre&gt;" style="rounded=0;whiteSpace=wrap;html=1;fillColor=#80FF00;" vertex="1" parent="WIyWlLk6GJQsqaUBKTNV-1">
          <mxGeometry x="200" width="290" height="20" as="geometry" />
        </mxCell>
        <mxCell id="TqVi8izwRz0PIjWKsdhe-11" value="&lt;font style=&quot;font-size: 8px&quot;&gt;重写定期任务的订阅服务（维护订阅时间）&lt;/font&gt;" style="text;html=1;strokeColor=none;fillColor=none;align=center;verticalAlign=middle;whiteSpace=wrap;rounded=0;" vertex="1" parent="WIyWlLk6GJQsqaUBKTNV-1">
          <mxGeometry x="260" y="-20" width="170" height="20" as="geometry" />
        </mxCell>
        <mxCell id="TqVi8izwRz0PIjWKsdhe-20" style="edgeStyle=orthogonalEdgeStyle;rounded=0;orthogonalLoop=1;jettySize=auto;html=1;exitX=0.5;exitY=1;exitDx=0;exitDy=0;entryX=0.5;entryY=0;entryDx=0;entryDy=0;" edge="1" parent="WIyWlLk6GJQsqaUBKTNV-1" source="TqVi8izwRz0PIjWKsdhe-17" target="TqVi8izwRz0PIjWKsdhe-19">
          <mxGeometry relative="1" as="geometry" />
        </mxCell>
        <mxCell id="TqVi8izwRz0PIjWKsdhe-17" value="consumer" style="rounded=0;whiteSpace=wrap;html=1;" vertex="1" parent="WIyWlLk6GJQsqaUBKTNV-1">
          <mxGeometry x="350" y="320" width="120" height="30" as="geometry" />
        </mxCell>
        <mxCell id="TqVi8izwRz0PIjWKsdhe-21" style="edgeStyle=orthogonalEdgeStyle;rounded=0;orthogonalLoop=1;jettySize=auto;html=1;exitX=0.5;exitY=1;exitDx=0;exitDy=0;" edge="1" parent="WIyWlLk6GJQsqaUBKTNV-1" source="TqVi8izwRz0PIjWKsdhe-19">
          <mxGeometry relative="1" as="geometry">
            <mxPoint x="410" y="590" as="targetPoint" />
          </mxGeometry>
        </mxCell>
        <mxCell id="TqVi8izwRz0PIjWKsdhe-24" value="巡检报告" style="edgeLabel;html=1;align=center;verticalAlign=middle;resizable=0;points=[];" vertex="1" connectable="0" parent="TqVi8izwRz0PIjWKsdhe-21">
          <mxGeometry x="-0.2653" y="-1" relative="1" as="geometry">
            <mxPoint as="offset" />
          </mxGeometry>
        </mxCell>
        <mxCell id="TqVi8izwRz0PIjWKsdhe-27" style="edgeStyle=orthogonalEdgeStyle;rounded=0;orthogonalLoop=1;jettySize=auto;html=1;exitX=1;exitY=0.5;exitDx=0;exitDy=0;" edge="1" parent="WIyWlLk6GJQsqaUBKTNV-1" source="TqVi8izwRz0PIjWKsdhe-19">
          <mxGeometry relative="1" as="geometry">
            <mxPoint x="570" y="440.2857142857142" as="targetPoint" />
          </mxGeometry>
        </mxCell>
        <mxCell id="TqVi8izwRz0PIjWKsdhe-28" value="heath report" style="edgeLabel;html=1;align=center;verticalAlign=middle;resizable=0;points=[];" vertex="1" connectable="0" parent="TqVi8izwRz0PIjWKsdhe-27">
          <mxGeometry x="0.0024" y="-14" relative="1" as="geometry">
            <mxPoint x="-15" y="-14" as="offset" />
          </mxGeometry>
        </mxCell>
        <mxCell id="TqVi8izwRz0PIjWKsdhe-19" value="report_type" style="rhombus;whiteSpace=wrap;html=1;fillColor=#FFFFFF;" vertex="1" parent="WIyWlLk6GJQsqaUBKTNV-1">
          <mxGeometry x="370" y="420" width="80" height="40" as="geometry" />
        </mxCell>
        <mxCell id="TqVi8izwRz0PIjWKsdhe-30" value="no" style="edgeStyle=orthogonalEdgeStyle;rounded=0;orthogonalLoop=1;jettySize=auto;html=1;" edge="1" parent="WIyWlLk6GJQsqaUBKTNV-1" source="TqVi8izwRz0PIjWKsdhe-29">
          <mxGeometry relative="1" as="geometry">
            <mxPoint x="720" y="440" as="targetPoint" />
          </mxGeometry>
        </mxCell>
        <mxCell id="TqVi8izwRz0PIjWKsdhe-31" value="yes" style="edgeStyle=orthogonalEdgeStyle;rounded=0;orthogonalLoop=1;jettySize=auto;html=1;exitX=0.5;exitY=1;exitDx=0;exitDy=0;" edge="1" parent="WIyWlLk6GJQsqaUBKTNV-1" source="TqVi8izwRz0PIjWKsdhe-29">
          <mxGeometry relative="1" as="geometry">
            <mxPoint x="610" y="580" as="targetPoint" />
          </mxGeometry>
        </mxCell>
        <mxCell id="TqVi8izwRz0PIjWKsdhe-38" value="instanceid" style="edgeLabel;html=1;align=center;verticalAlign=middle;resizable=0;points=[];" vertex="1" connectable="0" parent="TqVi8izwRz0PIjWKsdhe-31">
          <mxGeometry x="0.5" y="2" relative="1" as="geometry">
            <mxPoint as="offset" />
          </mxGeometry>
        </mxCell>
        <mxCell id="TqVi8izwRz0PIjWKsdhe-29" value="mail_open" style="rhombus;whiteSpace=wrap;html=1;fillColor=#FFFFFF;" vertex="1" parent="WIyWlLk6GJQsqaUBKTNV-1">
          <mxGeometry x="570" y="420" width="80" height="40" as="geometry" />
        </mxCell>
        <mxCell id="TqVi8izwRz0PIjWKsdhe-36" style="edgeStyle=orthogonalEdgeStyle;rounded=0;orthogonalLoop=1;jettySize=auto;html=1;exitX=1;exitY=0.5;exitDx=0;exitDy=0;entryX=-0.014;entryY=0.407;entryDx=0;entryDy=0;entryPerimeter=0;" edge="1" parent="WIyWlLk6GJQsqaUBKTNV-1" source="TqVi8izwRz0PIjWKsdhe-32" target="TqVi8izwRz0PIjWKsdhe-35">
          <mxGeometry relative="1" as="geometry" />
        </mxCell>
        <mxCell id="TqVi8izwRz0PIjWKsdhe-37" value="yes" style="edgeLabel;html=1;align=center;verticalAlign=middle;resizable=0;points=[];" vertex="1" connectable="0" parent="TqVi8izwRz0PIjWKsdhe-36">
          <mxGeometry x="-0.1332" y="-1" relative="1" as="geometry">
            <mxPoint as="offset" />
          </mxGeometry>
        </mxCell>
        <mxCell id="TqVi8izwRz0PIjWKsdhe-32" value="mail_open" style="rhombus;whiteSpace=wrap;html=1;fillColor=#FFFFFF;" vertex="1" parent="WIyWlLk6GJQsqaUBKTNV-1">
          <mxGeometry x="370" y="590" width="80" height="40" as="geometry" />
        </mxCell>
        <mxCell id="TqVi8izwRz0PIjWKsdhe-35" value="&lt;font style=&quot;font-size: 9px&quot;&gt;sendmail_susbcribe_service&lt;br&gt;return email addresses&lt;br&gt;&lt;/font&gt;" style="rounded=0;whiteSpace=wrap;html=1;fillColor=#FFFFFF;" vertex="1" parent="WIyWlLk6GJQsqaUBKTNV-1">
          <mxGeometry x="550" y="585" width="130" height="65" as="geometry" />
        </mxCell>
      </root>
    </mxGraphModel>
  </diagram>
</mxfile>
